<svg xmlns="http://www.w3.org/2000/svg" width="512" height="512" viewBox="0 0 512 512">
  <!-- Background circle with gradient -->
  <defs>
    <linearGradient id="bgGradient" x1="0%" y1="0%" x2="100%" y2="100%">
      <stop offset="0%" style="stop-color:#4F46E5;stop-opacity:1" />
      <stop offset="100%" style="stop-color:#7C3AED;stop-opacity:1" />
    </linearGradient>
    <linearGradient id="truckGradient" x1="0%" y1="0%" x2="100%" y2="100%">
      <stop offset="0%" style="stop-color:#FFFFFF;stop-opacity:1" />
      <stop offset="100%" style="stop-color:#F3F4F6;stop-opacity:1" />
    </linearGradient>
  </defs>
  
  <!-- Background -->
  <circle cx="256" cy="256" r="256" fill="url(#bgGradient)"/>
  
  <!-- Moving truck icon -->
  <g transform="translate(128, 180) scale(1.2)">
    <!-- Truck body -->
    <rect x="0" y="40" width="180" height="80" rx="8" fill="url(#truckGradient)" stroke="#E5E7EB" stroke-width="2"/>
    
    <!-- Truck cab -->
    <rect x="180" y="60" width="60" height="60" rx="6" fill="url(#truckGradient)" stroke="#E5E7EB" stroke-width="2"/>
    
    <!-- Truck windows -->
    <rect x="190" y="70" width="15" height="20" rx="2" fill="#4F46E5"/>
    <rect x="215" y="70" width="15" height="20" rx="2" fill="#4F46E5"/>
    
    <!-- Wheels -->
    <circle cx="40" cy="140" r="18" fill="#374151"/>
    <circle cx="40" cy="140" r="12" fill="#6B7280"/>
    <circle cx="40" cy="140" r="6" fill="#9CA3AF"/>
    
    <circle cx="140" cy="140" r="18" fill="#374151"/>
    <circle cx="140" cy="140" r="12" fill="#6B7280"/>
    <circle cx="140" cy="140" r="6" fill="#9CA3AF"/>
    
    <circle cx="210" cy="140" r="18" fill="#374151"/>
    <circle cx="210" cy="140" r="12" fill="#6B7280"/>
    <circle cx="210" cy="140" r="6" fill="#9CA3AF"/>
    
    <!-- Moving boxes in truck -->
    <rect x="20" y="55" width="25" height="25" rx="3" fill="#F59E0B" stroke="#D97706" stroke-width="1"/>
    <rect x="55" y="50" width="30" height="30" rx="3" fill="#EF4444" stroke="#DC2626" stroke-width="1"/>
    <rect x="95" y="55" width="25" height="25" rx="3" fill="#10B981" stroke="#059669" stroke-width="1"/>
    <rect x="130" y="50" width="25" height="30" rx="3" fill="#3B82F6" stroke="#2563EB" stroke-width="1"/>
    
    <!-- Box details -->
    <line x1="27" y1="55" x2="27" y2="80" stroke="#D97706" stroke-width="1"/>
    <line x1="20" y1="67" x2="45" y2="67" stroke="#D97706" stroke-width="1"/>
    
    <line x1="62" y1="50" x2="62" y2="80" stroke="#DC2626" stroke-width="1"/>
    <line x1="55" y1="65" x2="85" y2="65" stroke="#DC2626" stroke-width="1"/>
    
    <line x1="102" y1="55" x2="102" y2="80" stroke="#059669" stroke-width="1"/>
    <line x1="95" y1="67" x2="120" y2="67" stroke="#059669" stroke-width="1"/>
  </g>
  
  <!-- Motion lines for movement effect -->
  <g opacity="0.6">
    <line x1="80" y1="320" x2="120" y2="320" stroke="#FFFFFF" stroke-width="4" stroke-linecap="round"/>
    <line x1="90" y1="340" x2="140" y2="340" stroke="#FFFFFF" stroke-width="4" stroke-linecap="round"/>
    <line x1="85" y1="360" x2="130" y2="360" stroke="#FFFFFF" stroke-width="4" stroke-linecap="round"/>
  </g>
</svg>